<svg xmlns="http://www.w3.org/2000/svg" width="11" height="11" viewBox="0 0 11 11">
    <g fill="#FFF" fill-rule="evenodd">
        <circle cx="5.5" cy="5.5" r="1.833"/>
        <path fill-rule="nonzero" d="M7.791 0H3.208A3.212 3.212 0 0 0 0 3.209v4.583A3.212 3.212 0 0 0 3.209 11h4.583A3.212 3.212 0 0 0 11 7.791V3.208A3.212 3.212 0 0 0 7.791 0zM5.5 8.25A2.753 2.753 0 0 1 2.75 5.5 2.753 2.753 0 0 1 5.5 2.75 2.753 2.753 0 0 1 8.25 5.5 2.753 2.753 0 0 1 5.5 8.25zm3.208-5.5a.459.459 0 1 1 0-.917.459.459 0 0 1 0 .917z"/>
    </g>
</svg>
